<svg width="20" height="20" viewBox="0 0 20 20" fill="none" xmlns="http://www.w3.org/2000/svg">
<path d="M12.0001 7H11.3001V7.7H12.0001V7ZM12.0001 1.00002H12.7001V0.300021L12.0001 0.300017L12.0001 1.00002ZM9.00006 1L9.00006 0.3L8.53848 0.299997L8.35666 0.724256L9.00006 1ZM6.00006 8L5.35666 7.72426L5.30006 7.85632V8H6.00006ZM6.00006 19H5.30006V19.7H6.00006V19ZM17.0001 19V19.7H17.593L17.6905 19.1151L17.0001 19ZM19.0001 7L19.6905 7.11508L19.8264 6.3H19.0001V7ZM1 19L0.3 19L0.299998 19.7H1V19ZM1.00002 8.00002L1.00002 7.30002L0.300026 7.30002L0.300024 8.00001L1.00002 8.00002ZM12.7001 7V1.00002H11.3001V7H12.7001ZM12.0001 0.300017L9.00006 0.3L9.00006 1.7L12.0001 1.70002L12.0001 0.300017ZM8.35666 0.724256L5.35666 7.72426L6.64346 8.27574L9.64346 1.27574L8.35666 0.724256ZM5.30006 8V19H6.70006V8H5.30006ZM6.00006 19.7H17.0001V18.3H6.00006V19.7ZM17.6905 19.1151L19.6905 7.11508L18.3096 6.88492L16.3096 18.8849L17.6905 19.1151ZM19.0001 6.3H12.0001V7.7H19.0001V6.3ZM6.00007 18.3H1V19.7H6.00007V18.3ZM1.7 19L1.70002 8.00002L0.300024 8.00001L0.3 19L1.7 19ZM1.00003 8.70002L6.00008 8.69999L6.00007 7.29999L1.00002 7.30002L1.00003 8.70002Z" fill="#ffffff"/>
</svg>
