<svg width="12" height="12" viewBox="0 0 12 12" fill="none" xmlns="http://www.w3.org/2000/svg">
<g clip-path="url(#clip0_6870_8667)">
<circle cx="6" cy="6.00098" r="6" fill="#102324"/>
<path d="M7.96928 8.64941V5.69802C7.96928 5.4765 7.94979 5.29733 7.91079 5.16051C7.87829 5.01718 7.81655 4.90642 7.72556 4.82824C7.64107 4.74354 7.52083 4.6849 7.36485 4.65233C7.21537 4.61975 7.02364 4.60346 6.78966 4.60346H5.21034C4.98286 4.60346 4.79113 4.61975 4.63515 4.65233C4.48567 4.6849 4.36543 4.74354 4.27444 4.82824C4.18345 4.90642 4.11846 5.01718 4.07946 5.16051C4.04696 5.29733 4.03072 5.4765 4.03072 5.69802V8.64941H2.57812V5.64915C2.57812 5.22567 2.61712 4.86733 2.69511 4.57414C2.7796 4.28096 2.91934 4.04641 3.11432 3.8705C3.30929 3.68807 3.56927 3.55777 3.89423 3.47959C4.2192 3.39489 4.6254 3.35254 5.11285 3.35254H6.8774C7.37135 3.35254 7.78081 3.39489 8.10577 3.47959C8.43073 3.55777 8.69071 3.68807 8.88568 3.8705C9.08066 4.04641 9.21715 4.28096 9.29514 4.57414C9.37963 4.86733 9.42188 5.22567 9.42188 5.64915V8.64941H7.96928Z" fill="#16E6EF"/>
</g>
<defs>
<clipPath id="clip0_6870_8667">
<rect width="12" height="12" fill="white" transform="translate(0 0.000976562)"/>
</clipPath>
</defs>
</svg>
